<svg width="43" height="43" viewBox="0 0 43 43" fill="none" xmlns="http://www.w3.org/2000/svg">
<g clip-path="url(#clip0_446_352)">
<path d="M32.0474 27.9341L34.2129 30.0996L42.875 21.4375L34.2129 12.7754L32.0473 14.941L37.0127 19.9062H15.3125V22.9687H37.0127L32.0474 27.9341Z" fill="#F41111"/>
<path d="M34.4044 34.4307C30.934 37.9012 26.3201 39.8125 21.4122 39.8125C16.5039 39.8125 11.8892 37.9012 8.41843 34.4306C4.94756 30.9601 3.0625 26.3456 3.0625 21.4375C3.0625 16.5297 4.94756 11.9155 8.41853 8.44475C11.8894 4.97398 16.504 3.0625 21.4122 3.0625C26.3198 3.0625 30.9338 4.97398 34.4044 8.44465C34.645 8.68585 34.8791 8.93356 35.1062 9.1875H39.0043C35.1308 3.63404 28.6962 0 21.4122 0C9.57232 0 0 9.59883 0 21.4375C0 33.2774 9.57232 42.875 21.4122 42.875C28.6964 42.875 35.1313 39.2412 39.0046 33.6875H35.1066C34.8794 33.9416 34.6452 34.1895 34.4044 34.4307Z" fill="#F41111"/>
</g>
<defs>
<clipPath id="clip0_446_352">
<rect width="42.875" height="42.875" fill="white"/>
</clipPath>
</defs>
</svg>
