<svg width="20" height="20" viewBox="0 0 20 20" fill="none" xmlns="http://www.w3.org/2000/svg">
<path fill-rule="evenodd" clip-rule="evenodd" d="M19.754 18.6044L16.3162 15.2456L16.2382 15.1246C16.0862 14.9716 15.8832 14.8896 15.6682 14.8896C15.4572 14.8896 15.2502 14.9716 15.1022 15.1246C12.1804 17.8034 7.68059 17.9484 4.58273 15.4636C1.48488 12.9758 0.754914 8.63211 2.87581 5.30937C4.99671 1.98762 9.30951 0.719716 12.9533 2.34459C16.5982 3.96947 18.4451 7.98316 17.2661 11.7259C17.1841 11.9999 17.2501 12.2928 17.4491 12.4998C17.6451 12.7068 17.9421 12.7928 18.2231 12.7298C18.5041 12.6678 18.7311 12.4598 18.8171 12.1908C20.223 7.75018 18.0981 2.96954 13.8173 0.940699C9.5355 -1.08515 4.37974 0.250752 1.68887 4.08546C-1.003 7.92117 -0.42503 13.1008 3.05181 16.2805C6.52364 19.4563 11.8524 19.6743 15.5862 16.7925L18.6291 19.7683C18.942 20.0772 19.449 20.0772 19.766 19.7683C20.078 19.4593 20.078 18.9593 19.766 18.6474L19.754 18.6044Z" fill="black"/>
</svg>
